<?xml version="1.0" encoding="UTF-8" standalone="no"?>
<!-- Created with Inkscape (http://www.inkscape.org/) -->

<svg
   xmlns:dc="http://purl.org/dc/elements/1.1/"
   xmlns:cc="http://creativecommons.org/ns#"
   xmlns:rdf="http://www.w3.org/1999/02/22-rdf-syntax-ns#"
   xmlns:svg="http://www.w3.org/2000/svg"
   xmlns="http://www.w3.org/2000/svg"
   xmlns:sodipodi="http://sodipodi.sourceforge.net/DTD/sodipodi-0.dtd"
   xmlns:inkscape="http://www.inkscape.org/namespaces/inkscape"
   id="svg3336"
   version="1.1"
   inkscape:version="0.91 r13725"
   width="95.130936"
   height="146.08304"
   viewBox="0 0 95.130936 146.08304"
   sodipodi:docname="logo.svg">
  <metadata
     id="metadata3342">
    <rdf:RDF>
      <cc:Work
         rdf:about="">
        <dc:format>image/svg+xml</dc:format>
        <dc:type
           rdf:resource="http://purl.org/dc/dcmitype/StillImage" />
        <dc:title></dc:title>
      </cc:Work>
    </rdf:RDF>
  </metadata>
  <defs
     id="defs3340" />
  <sodipodi:namedview
     pagecolor="#ffffff"
     bordercolor="#666666"
     borderopacity="1"
     objecttolerance="10"
     gridtolerance="10"
     guidetolerance="10"
     inkscape:pageopacity="0"
     inkscape:pageshadow="2"
     inkscape:window-width="1366"
     inkscape:window-height="716"
     id="namedview3338"
     showgrid="false"
     fit-margin-top="0"
     fit-margin-left="0"
     fit-margin-right="0"
     fit-margin-bottom="0"
     inkscape:zoom="2.4954026"
     inkscape:cx="90.738796"
     inkscape:cy="62.213481"
     inkscape:window-x="-8"
     inkscape:window-y="-8"
     inkscape:window-maximized="1"
     inkscape:current-layer="svg3336" />
  <path
     style="fill:#272727"
     d="M 37.672915,144.18725 C 17.645435,138.46109 4.1054947,123.46805 0.62398457,103.16226 -2.5943154,84.3916 6.8721447,63.673958 23.581605,52.918832 c 16.18551,-10.417885 39.57352,-9.621771 56.34678,1.918011 l 5.43818,3.741396 0,-12.011946 0,-12.011946 -3.52282,0.339718 c -3.30661,0.318866 -3.54328,0.622512 -3.85614,4.947211 -0.18332,2.534122 -0.6711,4.58678 -1.08395,4.561463 -0.41284,-0.02532 -4.16507,-1.216927 -8.33826,-2.64802 l -7.58763,-2.601989 -0.31482,-8.735201 c -0.30378,-8.428473 -0.40684,-8.735202 -2.93526,-8.735202 -2.51244,0 -2.63348,0.33798 -2.93702,8.200757 l -0.31658,8.200758 -7.29713,0.465668 c -4.01342,0.256118 -7.91563,0.59056 -8.67157,0.743203 -0.93945,0.189697 -1.47814,-1.523817 -1.70208,-5.414077 l -0.32764,-5.691611 -3.73716,0 -3.73717,0 0,7.024723 0,7.024723 -4.60677,2.346688 c -2.53373,1.290678 -6.19205,3.553832 -8.1296,5.02923 l -3.52283,2.682541 0,-5.958567 c 0,-6.314354 -1.61339,-8.953072 -4.7403703,-7.752948 -1.44662,0.555206 -1.76331,2.418606 -1.76331,10.375326 0,8.58571 -0.31369,10.158465 -2.73387,13.706495 l -2.73386013,4.00792 0.29498013,-15.719204 0.29499,-15.719202 3.95162,-2.116656 3.95164,-2.116657 4.4489503,2.944642 c 2.44694,1.619553 4.44896,3.669498 4.44896,4.555433 0,1.946272 1.26933,2.075859 3.03505,0.309854 0.77412,-0.774227 1.30074,-4.505107 1.30074,-9.214989 l 0,-7.91405 9.78235,0 c 9.50334,0 9.8125,0.07931 10.83947,2.780867 0.58142,1.529476 1.05712,4.004509 1.05712,5.500074 0,2.004987 0.49823,2.624052 1.8969,2.356929 1.57785,-0.301342 1.95016,-1.773508 2.21349,-8.752422 0.2398,-6.355081 0.68799,-8.390146 1.84779,-8.390146 0.89175,0 1.82843,-1.584598 2.24294,-3.794407 0.40762,-2.1731898 1.35487,-3.7944078 2.217,-3.7944078 0.9977,0 1.50529,-1.2794922 1.50529,-3.7944072 C 56.100005,1.707483 56.587785,0 57.183955,0 c 0.59617,0 1.08394,1.707483 1.08394,3.794407 0,2.677708 0.48649,3.7944072 1.65302,3.7944072 0.98516,0 1.92747,1.372414 2.33229,3.3968378 0.40307,2.015699 1.49387,3.6099 2.68277,3.92085 1.75902,0.46007 2.0035,1.699152 2.0035,10.154616 0,7.034092 0.36906,9.630606 1.36888,9.630606 0.75289,0 1.85039,-1.080073 2.43888,-2.400161 1.68943,-3.789649 9.88989,-5.884209 16.16154,-4.127979 l 4.961468,1.389344 0,20.403447 c 0,25.259981 -0.28748,25.702723 -10.176628,15.672679 -9.08342,-9.212833 -16.72182,-12.749216 -28.84545,-13.354688 -14.25885,-0.71211 -26.80695,4.354191 -35.60412,14.375193 -22.4408804,25.562755 -7.7305803,65.982881 26.27651,72.201031 12.57831,2.29993 27.94375,-2.69625 37.23924,-12.10864 2.53372,-2.56558 4.60677,-5.0391 4.60677,-5.49671 0,-0.45762 -1.00641,-1.37073 -2.23647,-2.02915 -1.91912,-1.02724 -2.9036,-0.58207 -6.93789,3.1372 -19.08312,17.59295 -48.05455,12.49366 -59.33974,-10.44448 -3.19076,-6.48549 -3.56774,-8.23011 -3.56254,-16.48727 0.005,-7.976856 0.43218,-10.104387 3.13695,-15.624075 3.81404,-7.783423 9.52985,-13.682515 17.14422,-17.693944 5.15785,-2.717279 6.80622,-3.017593 16.5672,-3.018345 10.29103,-7.92e-4 11.18642,0.187302 17.69653,3.717511 6.05012,3.280771 14.2799,10.903062 14.2799,13.225822 0,0.922264 -13.35532,10.7008 -14.61493,10.7008 -0.43466,0 -1.76021,-1.233242 -2.94567,-2.740538 -2.78036,-3.535219 -9.63166,-7.01651 -13.80873,-7.01651 -5.63956,0 -11.99061,3.273978 -15.35085,7.913399 -2.59157,3.578106 -3.14137,5.41912 -3.14137,10.518916 0,9.900304 6.14755,17.080934 15.52889,18.138524 6.9455,0.78297 9.92642,-0.2346 15.35909,-5.24305 4.07392,-3.7558 5.06145,-4.20525 6.98158,-3.17747 1.23006,0.65842 2.23647,1.63037 2.23647,2.15991 0,2.29855 -5.98541,7.75118 -11.43668,10.41866 -16.48999,8.06906 -35.11964,-3.47073 -35.1239,-21.756852 -0.002,-8.260055 2.60896,-14.114458 8.57081,-19.218373 8.48521,-7.264163 20.37524,-7.980161 29.71971,-1.789672 4.49567,2.978277 5.16702,3.138841 7.19215,1.720157 2.20084,-1.54177 2.17908,-1.612646 -1.48211,-4.827719 -5.90195,-5.18279 -12.3748,-7.152748 -21.54722,-6.557712 -11.85478,0.76905 -20.21245,6.169395 -25.40315,16.41438 -7.8652,15.523637 -1.5082,33.898251 14.4942,41.894811 12.448,6.22039 29.78912,1.70685 37.7864,-9.83504 1.6194,-2.33716 3.32295,-4.24937 3.78568,-4.24937 0.46271,0 4.30058,1.99473 8.52858,4.43273 l 7.687258,4.43274 -1.90133,3.41337 c -3.226468,5.79236 -13.523578,15.35953 -19.786448,18.38385 -12.98443,6.27015 -23.7071,7.47784 -35.77024,4.0288 z M 58.809875,15.177629 c 0,-0.795018 -0.60972,-1.64876 -1.35494,-1.897204 -0.80601,-0.268712 -1.35493,0.499898 -1.35493,1.897204 0,1.397306 0.54892,2.165916 1.35493,1.897204 0.74522,-0.248444 1.35494,-1.102186 1.35494,-1.897204 z"
     id="path3346"
     inkscape:connector-curvature="0"
     inkscape:export-xdpi="90"
     inkscape:export-ydpi="90" />
</svg>
